<svg width="120" height="120" viewBox="0 0 120 120" fill="none" xmlns="http://www.w3.org/2000/svg">
<path d="M15.4513 77.3541C15.5538 77.608 15.6696 77.8423 15.7944 78.0766C15.8523 78.2133 15.9325 78.3549 16.0038 78.4818C16.1197 78.7356 16.2444 78.9797 16.3647 79.2238L17.0643 80.5126C17.1935 80.7518 17.3183 80.9861 17.4654 81.2204C17.7104 81.6793 18.0001 82.1284 18.2541 82.5872C18.3699 82.7776 18.4769 82.968 18.6061 83.1584C19.0962 83.9931 19.5418 84.6863 20.0186 85.36C20.3573 85.8628 20.6959 86.3559 21.0613 86.8489C21.1816 87.0344 21.3153 87.2199 21.4401 87.4054L22.4248 88.7137C22.5451 88.865 22.6654 89.0407 22.7947 89.197C23.2313 89.773 23.6948 90.3295 24.1582 90.8958C24.1582 90.9055 24.1716 90.9153 24.1805 90.9299C24.7553 91.7208 25.3747 92.4237 26.052 93.0486L26.0698 93.0681C26.4263 93.4684 26.7827 93.8638 27.1615 94.2543L27.6115 94.7278C28.1062 95.2355 28.6008 95.7383 29.1221 96.2265C29.131 96.2265 29.1355 96.2362 29.1444 96.2411L29.3984 96.4852C29.8529 96.9197 30.3118 97.3493 30.7797 97.7496L31.3367 98.2621C31.7155 98.5941 32.1076 98.9065 32.4953 99.2336L33.1013 99.7412C33.5157 100.083 33.9568 100.415 34.3801 100.747C34.5361 100.869 34.692 100.991 34.8525 101.103L34.9817 101.215L36.2338 102.114L36.7685 102.504C37.4235 102.963 38.0741 103.393 38.7247 103.822C38.9118 103.925 39.099 104.037 39.2727 104.154C39.754 104.457 40.2531 104.764 40.7387 105.043C41.0061 105.209 41.2824 105.35 41.5586 105.502C41.8928 105.707 42.2404 105.907 42.5969 106.112C42.6949 106.146 42.7751 106.18 42.8553 106.229L42.8731 106.209C43.0202 106.283 43.1583 106.361 43.3009 106.439C43.8356 106.732 44.3926 107.01 44.9719 107.283C45.0788 107.332 45.1947 107.381 45.3106 107.449C45.9522 107.757 46.5939 108.05 47.2578 108.333C47.4093 108.382 47.5697 108.465 47.7257 108.528C48.3272 108.777 48.9466 109.031 49.5615 109.27L49.7843 109.358C50.4661 109.612 51.1389 109.856 51.8341 110.085C51.9945 110.134 52.1593 110.198 52.3287 110.246C53.0372 110.481 53.7234 110.759 54.4408 110.906C100.217 120 113.518 80.9031 113.518 80.9031C102.342 96.7683 82.5088 100.952 63.727 96.2948C63.0318 96.1191 62.3367 95.875 61.6327 95.6505C60.6389 95.3424 59.6537 95.0021 58.6784 94.6302L59.1017 94.7718L58.8254 94.6546C58.2194 94.43 57.6357 94.1811 57.043 93.9321C56.898 93.8647 56.7509 93.8029 56.6019 93.7466L56.5529 93.732C55.8979 93.444 55.2607 93.1511 54.6279 92.8435C54.4898 92.7947 54.3739 92.7264 54.2358 92.6678C53.4863 92.31 52.7435 91.9356 52.0078 91.545L52.6228 91.8428C52.4623 91.7651 52.3047 91.6804 52.1504 91.5889C51.7316 91.3742 51.3127 91.1301 50.9028 90.9006C50.5905 90.7386 50.2829 90.566 49.9804 90.3832L50.0695 90.432C49.566 90.1391 49.0625 89.8218 48.5545 89.524C48.403 89.4069 48.2292 89.3092 48.0554 89.2018C47.3004 88.7211 46.5546 88.223 45.8185 87.7081L46.0993 87.8936C45.9106 87.7659 45.7263 87.6308 45.5467 87.4884L45.5735 87.5079C45.0945 87.1857 44.6249 86.847 44.1654 86.4925C44.0139 86.3851 43.8757 86.268 43.7198 86.1508C43.2397 85.7918 42.7672 85.4207 42.3028 85.0378L42.4097 85.1208C42.2226 84.9548 42.0221 84.7986 41.8215 84.6375C41.4294 84.3007 41.0328 83.9785 40.6407 83.627L40.1149 83.1682C39.5545 82.6797 39.0048 82.1768 38.4662 81.6597L38.4618 81.6548L36.9156 80.1171L36.47 79.6583C36.1046 79.2531 35.7303 78.8674 35.356 78.4671L34.9237 77.979C34.4624 77.4785 34.0122 76.9657 33.5736 76.4413L33.5469 76.4071L33.4711 76.3388C32.9993 75.7711 32.5344 75.1967 32.0764 74.6156C31.9561 74.4642 31.8447 74.3031 31.7199 74.142L30.7084 72.7996C30.2525 72.1722 29.8068 71.5358 29.3716 70.8909L29.1934 70.6175C18.7754 55.1135 15.0057 33.7173 23.3427 16.163L15.9815 26.3607C6.51265 41.196 7.68456 60.4881 14.9255 76.2411C15.0903 76.6268 15.273 76.988 15.4513 77.3541Z" fill="#1266A9"/>
<path d="M47.3425 55.9825L47.2935 55.9043L47.2534 55.8458L47.3425 55.9825Z" fill="black"/>
<path d="M52.3241 62.3871L52.7251 62.8265C53.2331 63.3634 53.7544 63.8858 54.2847 64.4081L54.3515 64.4716C54.8862 64.989 55.4878 65.5309 56.1072 66.0581L56.2007 66.1362C56.3522 66.2485 56.4815 66.3803 56.6285 66.4926C57.2523 67.0198 57.8806 67.5226 58.5356 68.0254L58.6025 68.0693C58.8788 68.289 59.1728 68.4891 59.4848 68.7039C59.6095 68.7918 59.7521 68.909 59.8858 68.9968C60.3581 69.3288 60.8215 69.6363 61.2983 69.9536C61.3741 69.9878 61.4409 70.0317 61.5122 70.0659C61.9132 70.3344 62.3499 70.5931 62.7688 70.8274C62.9158 70.9251 63.0584 70.9983 63.2099 71.091C63.5085 71.2521 63.8026 71.423 64.0877 71.589L64.2303 71.6573C64.8319 71.9795 65.4468 72.2822 66.0484 72.5799C66.1999 72.6434 66.3291 72.6971 66.4583 72.7654C66.9529 72.9997 67.4564 73.2243 67.9511 73.4293C68.1738 73.5123 68.3833 73.61 68.5927 73.6832C69.0472 73.8687 69.524 74.0395 69.9741 74.2104L70.5979 74.4301C71.2484 74.6497 71.9079 74.9378 72.5986 75.0549C107.948 81.4303 116.129 51.7647 116.129 51.7647C108.763 63.3195 94.5085 68.826 79.3182 64.5253C78.5599 64.3158 77.8079 64.0797 77.0635 63.8174L77.3174 63.8955C77.1036 63.8321 76.9164 63.7588 76.7114 63.6905C76.248 63.5148 75.7712 63.3439 75.3212 63.1633L74.6795 62.8997C74.1805 62.68 73.6725 62.475 73.1868 62.2407C73.0353 62.1674 72.8972 62.1186 72.7813 62.0454C72.1575 61.7379 71.5292 61.4352 70.9187 61.113L70.0008 60.5907L69.4705 60.2978C69.0606 60.0635 68.6818 59.8194 68.2897 59.5704C68.1897 59.5189 68.0929 59.4602 68.0001 59.3947L68.0134 59.3996C67.5411 59.0774 67.051 58.7649 66.5964 58.4379C66.4449 58.3451 66.3068 58.2328 66.1642 58.1352L65.2374 57.4762C64.5957 56.988 63.9674 56.4657 63.3302 55.958C63.1876 55.8164 63.0495 55.6993 62.9114 55.5724C56.2319 49.8462 50.965 42.021 48.4652 33.1608C45.8317 23.9492 46.411 13.6197 50.9605 5.23798L45.3683 13.8687C38.5017 24.6131 38.8894 38.9749 44.2365 50.3393C45.2124 52.4384 46.2016 54.2104 47.2933 55.8994C48.3093 57.4908 49.4322 59.3556 50.7868 60.6346C51.268 61.235 51.7849 61.8062 52.3241 62.3871Z" fill="#1266A9"/>
<path d="M20.0407 85.3893L20.0229 85.36L19.9917 85.3161L20.0407 85.3893ZM38.5685 81.7574L38.6131 81.7916L38.622 81.8062L38.5685 81.7574Z" fill="black"/>
<path d="M70.0811 4.52526C66.0307 11.0032 65.643 19.0481 68.4324 26.1899C71.3956 33.7759 77.4512 39.7315 84.5094 42.5531C84.7991 42.6751 85.0798 42.7776 85.3784 42.8948L85.7705 43.0266C86.1804 43.1682 86.5948 43.3341 87.0181 43.4367C106.54 47.5421 111.824 32.5116 113.246 30.3002C108.598 37.5738 100.805 39.3215 91.2424 36.7879C90.4109 36.5658 89.5925 36.2886 88.7916 35.958L88.9387 36.0117C87.9421 35.6339 86.9662 35.1938 86.0156 34.6937L86.1849 34.7767C84.358 33.8003 82.7895 32.7459 81.3324 31.5353C72.7859 24.4569 67.5011 10.9788 73.08 0L70.0811 4.52526Z" fill="#1266A9"/>
</svg>
