<svg width="32" height="32" viewBox="0 0 32 32" fill="none" xmlns="http://www.w3.org/2000/svg">
<g clip-path="url(#clip0_10_194)">
<path d="M4 0C1.79086 0 0 1.79086 0 4V28C0 30.2091 1.79086 32 4 32H28C30.2091 32 32 30.2091 32 28V4C32 1.79086 30.2091 0 28 0H4ZM30.125 26.125C30.125 28.3341 28.3341 30.125 26.125 30.125H5.875C3.66586 30.125 1.875 28.3341 1.875 26.125V5.875C1.875 3.66586 3.66586 1.875 5.875 1.875H26.125C28.3341 1.875 30.125 3.66586 30.125 5.875V26.125Z" fill="black"/>
<path d="M11.525 21.1344V14.2719C11.525 13.4107 10.8268 12.7125 9.96563 12.7125C9.10441 12.7125 8.40625 13.4106 8.40625 14.2719V21.1344C8.40625 21.9956 9.10441 22.6937 9.96563 22.6937C10.8268 22.6937 11.525 21.9956 11.525 21.1344Z" fill="black"/>
<path d="M15.1823 22.6937C16.1482 22.6937 16.9313 21.9107 16.9313 20.9448V17.3C16.9313 16.9937 16.9188 16.6937 17.0063 16.4812C17.2438 15.8812 17.7625 15.2562 18.6938 15.2562C19.9125 15.2562 20.4625 16.1812 20.4625 17.5312V20.925C20.4625 21.9018 21.2544 22.6937 22.2313 22.6937C23.2081 22.6937 24 21.9018 24 20.925V17.1437C24 14.0562 22.2625 12.6187 20.0438 12.6187C19.0945 12.6187 18.3339 12.8937 17.7983 13.2545C17.6065 13.3838 16.9313 13.1445 16.9313 12.9133C16.9313 12.8024 16.8414 12.7125 16.7305 12.7125H15.2242C14.2462 12.7125 13.4408 13.5309 13.4432 14.5089C13.4477 16.3457 13.4392 19.1362 13.4324 20.9373C13.4287 21.9065 14.2131 22.6937 15.1823 22.6937Z" fill="black"/>
<path d="M9.85624 11.4625H9.88124C11.0562 11.4625 11.7875 10.6938 11.7812 9.73125C11.7562 8.74375 11.05 8 9.89999 8C8.74999 8 7.99374 8.74375 7.99374 9.73125C7.99374 10.7 8.72499 11.4625 9.85624 11.4625Z" fill="black"/>
</g>
<defs>
<clipPath id="clip0_10_194">
<rect width="32" height="32" fill="white"/>
</clipPath>
</defs>
</svg>
