<?xml version="1.0" encoding="UTF-8" standalone="no"?>
<!-- Created with Inkscape (http://www.inkscape.org/) -->

<svg
   version="1.1"
   id="svg2"
   width="6533.3335"
   height="6533.3335"
   viewBox="0 0 6533.3335 6533.3335"
   sodipodi:docname="vecteezy_bearded-male-cartoon-character-with-sunglasses-minimalist_6541188.eps"
   xmlns:inkscape="http://www.inkscape.org/namespaces/inkscape"
   xmlns:sodipodi="http://sodipodi.sourceforge.net/DTD/sodipodi-0.dtd"
   xmlns="http://www.w3.org/2000/svg"
   xmlns:svg="http://www.w3.org/2000/svg">
  <defs
     id="defs6" />
  <sodipodi:namedview
     id="namedview4"
     pagecolor="#ffffff"
     bordercolor="#000000"
     borderopacity="0.25"
     inkscape:showpageshadow="2"
     inkscape:pageopacity="0.0"
     inkscape:pagecheckerboard="0"
     inkscape:deskcolor="#d1d1d1" />
  <g
     id="g8"
     inkscape:groupmode="layer"
     inkscape:label="ink_ext_XXXXXX"
     transform="matrix(1.3333333,0,0,-1.3333333,0,6533.3333)">
    <g
       id="g10"
       transform="scale(0.1)">
      <path
         d="M 49000,0 H 0 V 49000 H 49000 V 0"
         style="fill:#d13044;fill-opacity:1;fill-rule:nonzero;stroke:none"
         id="path12" />
      <path
         d="m 24132.7,6398.4 c -5186.1,-3375 -8095,-857.8 -8384.3,-392.9 -289.3,464.9 -1273.1,4089.8 -1273.1,4089.8 -206,744.7 -31.4,1391.1 -31.4,1391.1 2054.1,1533.5 7347.6,938.6 9562.1,-1077 2214.5,-2015.6 126.7,-4011 126.7,-4011"
         style="fill:#ffc99c;fill-opacity:1;fill-rule:nonzero;stroke:none"
         id="path14" />
      <path
         d="m 24132.7,6398.4 c -5186.1,-3375 -8095,-857.8 -8384.3,-392.9 -289.3,464.9 -1273.1,4089.8 -1273.1,4089.8 -206,744.7 -31.4,1391.1 -31.4,1391.1 2054.1,1533.5 7347.6,938.6 9562.1,-1077 2214.5,-2015.6 126.7,-4011 126.7,-4011 z"
         style="fill:none;stroke:#42210b;stroke-width:40;stroke-linecap:butt;stroke-linejoin:miter;stroke-miterlimit:10;stroke-dasharray:none;stroke-opacity:1"
         id="path16" />
      <path
         d="M 37301.6,13447.1 C 36529,12641 35316,12843 35002.2,13001.3 c -313.8,158.3 -858.7,-64.6 -858.7,-64.6 -258.7,1559.6 934.9,5655.6 934.9,5655.6 601.8,1744.7 2737.9,2669.6 2737.9,2669.6 -283.7,2045.5 -1837.5,1366.8 -1837.5,1366.8 l -2345.4,-210.2 c 818.8,-1382.4 23.5,-5274.7 23.5,-5274.7 0,0 -454.6,-5943.9 -5691.2,-8403.7 0,0 -6519.7,8270.6 -13891.1,4047.9 l -1961,5533.5 -510,818.7 c -618.8,2258.5 -1135.5,4399.9 -994.8,4805.7 317.5,915.4 1741.2,3987.1 1741.2,3987.1 -180.7,444.9 514.3,5081.3 514.3,5081.3 l 329.1,1787.2 c 0,0 1931.6,2496.7 1957.7,2639.3 26.2,142.6 5942.4,1319.9 5942.4,1319.9 l 9048,2176.5 3963.2,-8146.6 3784.3,-7878.1 967.9,-3302.4 c 2030.5,-472.6 1891.4,-2443.1 1891.4,-2443.1 -173.7,-2710.2 -2674.1,-4913.7 -3446.7,-5719.9"
         style="fill:#ffc99c;fill-opacity:1;fill-rule:nonzero;stroke:none"
         id="path18" />
      <path
         d="M 37301.6,13447.1 C 36529,12641 35316,12843 35002.2,13001.3 c -313.8,158.3 -858.7,-64.6 -858.7,-64.6 -258.7,1559.6 934.9,5655.6 934.9,5655.6 601.8,1744.7 2737.9,2669.6 2737.9,2669.6 -283.7,2045.5 -1837.5,1366.8 -1837.5,1366.8 l -2345.4,-210.2 c 818.8,-1382.4 23.5,-5274.7 23.5,-5274.7 0,0 -454.6,-5943.9 -5691.2,-8403.7 0,0 -6519.7,8270.6 -13891.1,4047.9 l -1961,5533.5 -510,818.7 c -618.8,2258.5 -1135.5,4399.9 -994.8,4805.7 317.5,915.4 1741.2,3987.1 1741.2,3987.1 -180.7,444.9 514.3,5081.3 514.3,5081.3 l 329.1,1787.2 c 0,0 1931.6,2496.7 1957.7,2639.3 26.2,142.6 5942.4,1319.9 5942.4,1319.9 l 9048,2176.5 3963.2,-8146.6 3784.3,-7878.1 967.9,-3302.4 c 2030.5,-472.6 1891.4,-2443.1 1891.4,-2443.1 -173.7,-2710.2 -2674.1,-4913.7 -3446.7,-5719.9 z"
         style="fill:none;stroke:#333333;stroke-width:40;stroke-linecap:butt;stroke-linejoin:miter;stroke-miterlimit:10;stroke-dasharray:none;stroke-opacity:1"
         id="path20" />
      <path
         d="m 32293.8,22443.4 c 0,0 -112.5,-13095.4 -12723.1,-16790.7 0,0 -2648,-873.2 -3982.1,-128.6 l 3003.8,-1908.2 5995.7,1118.1 4652.3,3347.1 3557.1,3155.6 1021.4,3110.2 1288.4,7035.5 138.5,1398.9 -2952,-337.9"
         style="fill:#e2ae8a;fill-opacity:1;fill-rule:nonzero;stroke:none"
         id="path22" />
      <path
         d="m 29704.1,36679.4 c 0,0 -2498.3,336.5 -1523.2,-971.1 975.2,-1307.5 1733.3,-4118.5 -5.7,-7377.8 0,0 -775.3,-664.4 1048.5,-877.4 1823.8,-213 3684.4,-1831.4 3223,-4172.5 0,0 -724.9,-1107.4 -152.9,-837.2 572,270.3 1952.1,434.3 2461.2,414.5 509.2,-19.9 235.8,2894 235.8,2894 0,0 -2847.7,2295.6 -2856.4,6530.9 -8.8,4235.4 141.2,5054.7 141.2,5054.7 0,0 -2021.7,-154 -2571.5,-658.1"
         style="fill:#e2ae8a;fill-opacity:1;fill-rule:nonzero;stroke:none"
         id="path24" />
      <path
         d="m 24132.7,6398.4 c -5186.1,-3375 -8095,-857.8 -8384.3,-392.9 -289.3,464.9 -1273.1,4089.8 -1273.1,4089.8 -206,744.7 -31.4,1391.1 -31.4,1391.1 2054.1,1533.5 7347.6,938.6 9562.1,-1077 2214.5,-2015.6 126.7,-4011 126.7,-4011 z m 13683.6,14863.5 c -283.7,2045.5 -1837.5,1366.8 -1837.5,1366.8 l -2345.4,-210.2 c 818.8,-1382.4 23.5,-5274.7 23.5,-5274.7 0,0 -454.6,-5943.9 -5691.2,-8403.7 0,0 -6519.7,8270.6 -13891.1,4047.9 l -1961,5533.5 -510,818.7 c 777.3,-2836.5 1715.6,-5857.9 1715.6,-5857.9 l 1433.9,-6593.5 c 0,0 514.8,-2473.3 2106.4,-3470.4 1591.7,-997.2 3532.3,-969.4 5468,-638.3 1935.6,331 5227.3,2671.8 5227.3,2671.8 l 4775,2734.6 c 0,0 1590.9,852.6 1802.8,4717.8 l 0.3,6.1 10.6,226.3 c -258.7,1559.6 934.9,5655.6 934.9,5655.6 601.8,1744.7 2737.9,2669.6 2737.9,2669.6"
         style="fill:#490917;fill-opacity:1;fill-rule:nonzero;stroke:none"
         id="path26" />
      <path
         d="m 24132.7,6398.4 c -5186.1,-3375 -8095,-857.8 -8384.3,-392.9 -289.3,464.9 -1273.1,4089.8 -1273.1,4089.8 -206,744.7 -31.4,1391.1 -31.4,1391.1 2054.1,1533.5 7347.6,938.6 9562.1,-1077 2214.5,-2015.6 126.7,-4011 126.7,-4011 z m 13683.6,14863.5 c -283.7,2045.5 -1837.5,1366.8 -1837.5,1366.8 l -2345.4,-210.2 c 818.8,-1382.4 23.5,-5274.7 23.5,-5274.7 0,0 -454.6,-5943.9 -5691.2,-8403.7 0,0 -6519.7,8270.6 -13891.1,4047.9 l -1961,5533.5 -510,818.7 c 777.3,-2836.5 1715.6,-5857.9 1715.6,-5857.9 l 1433.9,-6593.5 c 0,0 514.8,-2473.3 2106.4,-3470.4 1591.7,-997.2 3532.3,-969.4 5468,-638.3 1935.6,331 5227.3,2671.8 5227.3,2671.8 l 4775,2734.6 c 0,0 1590.9,852.6 1802.8,4717.8 l 0.3,6.1 10.6,226.3 c -258.7,1559.6 934.9,5655.6 934.9,5655.6 601.8,1744.7 2737.9,2669.6 2737.9,2669.6 z"
         style="fill:none;stroke:#42210b;stroke-width:40;stroke-linecap:butt;stroke-linejoin:miter;stroke-miterlimit:10;stroke-dasharray:none;stroke-opacity:1"
         id="path28" />
      <path
         d="m 13166.4,32800.9 c 0,0 1959.3,2330.9 2042.7,2771.2 0,0 2680.9,-490.9 4298.4,-450.2 0,0 -4921.5,114.9 -6341.1,-2321"
         style="fill:#e2ae8a;fill-opacity:1;fill-rule:nonzero;stroke:none"
         id="path30" />
      <path
         d="m 17160.6,25288.4 c 0,0 -2966.6,2603.9 -5981.4,1095.3 0,0 -558.3,-1280.8 697.4,-1225.9 1255.6,54.8 3469.2,579.5 4991.1,-435.3 0,0 568.2,-596.2 292.9,565.9"
         style="fill:#490917;fill-opacity:1;fill-rule:nonzero;stroke:none"
         id="path32" />
      <path
         d="m 17160.6,25288.4 c 0,0 -2966.6,2603.9 -5981.4,1095.3 0,0 -558.3,-1280.8 697.4,-1225.9 1255.6,54.8 3469.2,579.5 4991.1,-435.3 0,0 568.2,-596.2 292.9,565.9 z"
         style="fill:none;stroke:#42210b;stroke-width:40;stroke-linecap:butt;stroke-linejoin:miter;stroke-miterlimit:10;stroke-dasharray:none;stroke-opacity:1"
         id="path34" />
      <path
         d="m 18949.4,25876.7 c 1510.5,1437.6 9374.6,702.5 10646.7,-642.2 0,0 1040.9,-1867.3 -3.5,-1203.7 -1044.4,663.6 -7913,1948.4 -10042,982.6 0,0 -921.5,-738.1 -601.2,863.3"
         style="fill:#490917;fill-opacity:1;fill-rule:nonzero;stroke:none"
         id="path36" />
      <path
         d="m 18949.4,25876.7 c 1510.5,1437.6 9374.6,702.5 10646.7,-642.2 0,0 1040.9,-1867.3 -3.5,-1203.7 -1044.4,663.6 -7913,1948.4 -10042,982.6 0,0 -921.5,-738.1 -601.2,863.3 z"
         style="fill:none;stroke:#42210b;stroke-width:40;stroke-linecap:butt;stroke-linejoin:miter;stroke-miterlimit:10;stroke-dasharray:none;stroke-opacity:1"
         id="path38" />
      <path
         d="m 24132.7,6398.4 c -5186.1,-3375 -8095,-857.8 -8384.3,-392.9 -289.3,464.9 -1273.1,4089.8 -1273.1,4089.8 -206,744.7 -31.4,1391.1 -31.4,1391.1 2054.1,1533.5 7347.6,938.6 9562.1,-1077 2214.5,-2015.6 126.7,-4011 126.7,-4011 z"
         style="fill:none;stroke:#42210b;stroke-width:40;stroke-linecap:butt;stroke-linejoin:miter;stroke-miterlimit:10;stroke-dasharray:none;stroke-opacity:1"
         id="path40" />
      <path
         d="m 30272.6,35910.2 c 0,0 -9188.5,-1226.7 -15150.1,140.1 0,0 -2137.2,-2439.3 -2329,-3701.6 0,0 -343.4,1989.4 -100.2,2888.4 0,0 -1532.3,5.4 -1132.7,-4038.7 0,0 -1117.1,126 -1195.3,1201.8 -78.2,1075.8 -158.5,3213.6 2099.3,5237.7 0,0 -1297.1,1.6 -1969,-661.6 0,0 1177.7,1278.3 2146.3,1415.4 0,0 418.5,2714.8 2149.1,3577.4 l -1065.7,-237.4 c 0,0 1144,1952.9 3074.9,2621.5 l -1480.3,74.5 c 0,0 2803.7,1570.3 4996.1,1090.2 0,0 1570.9,420 2539,124.8 l -1077.9,983.7 c 0,0 3763.2,-60.1 5159.5,-1023.4 l -196.1,861.5 c 0,0 3804,-696.6 5682.9,-2888.5 l -209.5,1217.9 c 0,0 2271.7,-691.2 4172.5,-4695.7 l 178.5,1618.6 c 0,0 733.9,-2218.1 629.5,-2788.7 0,0 1463.2,46.6 2413.1,-992.3 0,0 -1037.3,347.2 -1556.5,88.4 0,0 940.9,-15 1882.7,-1956.7 0,0 1590.7,-330.6 2045.5,-4502.6 0,0 471.4,-4725.6 -1494.5,-11167.2 0,0 -496.2,1206.6 -2324.7,964 0,0 -328.4,1723.5 -1919.6,1621.8 -1591.3,-101.8 -2740,-363.2 -2740,-363.2 l 322.1,3046.9 -169.5,415.6 c -3955.3,1350.7 -3537.9,8323 -3380.4,9827.4"
         style="fill:#490917;fill-opacity:1;fill-rule:nonzero;stroke:none"
         id="path42" />
      <path
         d="m 30272.6,35910.2 c 0,0 -9188.5,-1226.7 -15150.1,140.1 0,0 -2137.2,-2439.3 -2329,-3701.6 0,0 -343.4,1989.4 -100.2,2888.4 0,0 -1532.3,5.4 -1132.7,-4038.7 0,0 -1117.1,126 -1195.3,1201.8 -78.2,1075.8 -158.5,3213.6 2099.3,5237.7 0,0 -1297.1,1.6 -1969,-661.6 0,0 1177.7,1278.3 2146.3,1415.4 0,0 418.5,2714.8 2149.1,3577.4 l -1065.7,-237.4 c 0,0 1144,1952.9 3074.9,2621.5 l -1480.3,74.5 c 0,0 2803.7,1570.3 4996.1,1090.2 0,0 1570.9,420 2539,124.8 l -1077.9,983.7 c 0,0 3763.2,-60.1 5159.5,-1023.4 l -196.1,861.5 c 0,0 3804,-696.6 5682.9,-2888.5 l -209.5,1217.9 c 0,0 2271.7,-691.2 4172.5,-4695.7 l 178.5,1618.6 c 0,0 733.9,-2218.1 629.5,-2788.7 0,0 1463.2,46.6 2413.1,-992.3 0,0 -1037.3,347.2 -1556.5,88.4 0,0 940.9,-15 1882.7,-1956.7 0,0 1590.7,-330.6 2045.5,-4502.6 0,0 471.4,-4725.6 -1494.5,-11167.2 0,0 -496.2,1206.6 -2324.7,964 0,0 -328.4,1723.5 -1919.6,1621.8 -1591.3,-101.8 -2740,-363.2 -2740,-363.2 l 322.1,3046.9 -169.5,415.6 c -3955.3,1350.7 -3537.9,8323 -3380.4,9827.4 z"
         style="fill:none;stroke:#42210b;stroke-width:40;stroke-linecap:butt;stroke-linejoin:miter;stroke-miterlimit:10;stroke-dasharray:none;stroke-opacity:1"
         id="path44" />
      <path
         d="m 31195.7,36866.9 c 0,0 -1444.8,1378.6 -1409.5,2245.2 0,0 1648.5,-1445.9 2129.4,-1684.5 0,0 236.8,1462 38.6,2401.5 -198.3,939.6 914.8,-1070.7 1018.2,-2023 0,0 682.5,1199.8 645.3,1838.8 0,0 133.2,-957.7 728.2,-1247.3 0,0 486.4,1476.5 419.3,2121.1 0,0 422.1,-1402.1 776.1,-1828.2 0,0 640.9,635.4 672.9,810.1 0,0 338,-513.5 249.5,-828.4 0,0 1056.7,-464.5 1073.7,-1551.5 0,0 -1047.1,854.1 -1489.6,965.3 0,0 -159,-1205.3 7.3,-1476.6 0,0 -1245.4,950.6 -1633.6,1021.7 l 35.1,-819.4 c 0,0 -898.9,315.2 -1062,435.4 -163.1,120.2 140.7,-748.4 592.8,-1312.9 0,0 -1112.2,835.9 -1565.4,888.8 0,0 311.3,-1502.1 128.9,-2161.2 0,0 -366.8,1030.6 -685.6,1480.4 l -352,-1079.7 -193.9,1300.1 -1297.7,327.9 1174,176.4"
         style="fill:#5b1a30;fill-opacity:1;fill-rule:nonzero;stroke:none"
         id="path46" />
      <path
         d="m 36023.9,16536.4 c 0,0 432.9,3641.6 2446.9,3751.5 2013.9,109.8 2426,-1064.6 847.7,-3958.2 0,0 -896.1,-1745.9 -1248.1,-2104.2"
         style="fill:none;stroke:#603813;stroke-width:100;stroke-linecap:round;stroke-linejoin:miter;stroke-miterlimit:10;stroke-dasharray:none;stroke-opacity:1"
         id="path48" />
      <path
         d="m 36528,16271.7 c 0,0 1761.2,-836.6 1355,1799 0,0 -762.4,1064 83.2,1200.9 0,0 1650.9,615 1086.9,-1158 -564,-1773.1 -417.9,-2655.7 -1855.7,-2853.2 0,0 -1295,-454.1 -1466.6,-126.5 -171.6,327.7 -533.6,1151.1 797.2,1137.8"
         style="fill:#b2876b;fill-opacity:1;fill-rule:nonzero;stroke:none"
         id="path50" />
      <path
         d="m 34132.9,12710.4 10.6,226.3 c -3,-76.5 -6.5,-151.9 -10.6,-226.3"
         style="fill:#ffcf9f;fill-opacity:1;fill-rule:nonzero;stroke:none"
         id="path52" />
      <path
         d="m 34132.9,12710.4 10.6,226.3 c -3,-76.5 -6.5,-151.9 -10.6,-226.3 z"
         style="fill:none;stroke:#42210b;stroke-width:40;stroke-linecap:butt;stroke-linejoin:miter;stroke-miterlimit:10;stroke-dasharray:none;stroke-opacity:1"
         id="path54" />
      <path
         d="m 23134.5,10164.2 c -412.8,47.6 -926.6,310.2 -1410.9,427 -484.2,116.8 -1999.3,281.9 -3169,-122.1 -1169.6,-403.9 -2201.8,403.2 -2310.5,423.1 -108.8,19.9 -967.1,-525.2 -967.1,-525.2 -515.1,-312.2 -238.9,689.9 -238.9,689.9 1186,1458.1 2680.1,520.6 2680.1,520.6 3425.1,838.6 5829,-1460.7 5416.3,-1413.3"
         style="fill:#8e6a49;fill-opacity:1;fill-rule:nonzero;stroke:none"
         id="path56" />
      <path
         d="M 23134.5,10164.2 C 17179,7405.8 15277,10367 15277,10367 c 0,0 858.3,545.1 967.1,525.2 108.7,-19.9 1140.9,-827 2310.5,-423.1 1169.7,404 2684.8,238.9 3169,122.1 484.3,-116.8 998.1,-379.4 1410.9,-427"
         style="fill:#75563d;fill-opacity:1;fill-rule:nonzero;stroke:none"
         id="path58" />
      <path
         d="m 17550.8,21633.6 c 0,0 -105.2,-3621.8 -1667.9,-5292.9 -1562.6,-1671.2 3383.3,-1081.3 3383.3,-1081.3"
         style="fill:none;stroke:#534741;stroke-width:200;stroke-linecap:butt;stroke-linejoin:miter;stroke-miterlimit:10;stroke-dasharray:none;stroke-opacity:1"
         id="path60" />
      <path
         d="m 18786.5,21369.7 c 0,0 266.5,-3452.1 1091.1,-4469.9 824.6,-1017.8 -2373.6,-916.1 -2373.6,-916.1 0,0 -1206.8,-461 439.8,2088.4 0,0 788.8,1367.5 842.7,3297.6"
         style="fill:#e2ae8a;fill-opacity:1;fill-rule:nonzero;stroke:none"
         id="path62" />
      <path
         d="m 12971.6,25214.9 c 2929.4,5.9 3112.3,-2549.2 3112.3,-2549.2 1274.7,742.7 3008.1,-8.6 3008.1,-8.6 9.9,350.7 290,1139.9 290,1139.9 579.1,1385.3 2029.4,1309.5 5228.1,1157.6 3198.8,-152 2923.8,-2541.9 2923.8,-2541.9 l 1634.3,188.8 457.8,-165.2 7217.1,766.2 c 1399.7,-500.3 1316.9,-1840.8 1316.9,-1840.8 l -343.7,-99.8 c -278.9,2030.4 -1837.5,1366.8 -1837.5,1366.8 l -6064.6,-543.4 -257.9,-223.9 -2025.6,-252.7 c 124.1,-1839.4 -132,-4422.6 -1082.4,-5170.4 -950.3,-747.8 -4278,-707.9 -5689.1,174.1 -1411.1,882.1 -1799.4,5128.7 -1830.1,5405.5 -30.6,276.8 -2857.3,387.6 -2738.9,-150.6 118.3,-538.2 -50.5,-4273.4 -1258.4,-4946.9 -1207.9,-673.6 -4783.9,-805.1 -5910.15,892.4 -1126.2,1697.5 -1306.46,4414.8 -1306.46,4414.8 -813.64,-149.2 -843.93,425.7 -843.93,425.7 394.26,524.3 935.58,371 935.58,371 0,0 -75.35,1380.9 755.39,1849.5 0,0 1392.17,549.9 3240.77,428.3 l 1068.6,-87.2"
         style="fill:#1a1a1a;fill-opacity:1;fill-rule:nonzero;stroke:none"
         id="path64" />
      <path
         d="m 12971.6,25214.9 c 2929.4,5.9 3112.3,-2549.2 3112.3,-2549.2 1274.7,742.7 3008.1,-8.6 3008.1,-8.6 9.9,350.7 290,1139.9 290,1139.9 579.1,1385.3 2029.4,1309.5 5228.1,1157.6 3198.8,-152 2923.8,-2541.9 2923.8,-2541.9 l 1634.3,188.8 457.8,-165.2 7217.1,766.2 c 1399.7,-500.3 1316.9,-1840.8 1316.9,-1840.8 l -343.7,-99.8 c -278.9,2030.4 -1837.5,1366.8 -1837.5,1366.8 l -6064.6,-543.4 -257.9,-223.9 -2025.6,-252.7 c 124.1,-1839.4 -132,-4422.6 -1082.4,-5170.4 -950.3,-747.8 -4278,-707.9 -5689.1,174.1 -1411.1,882.1 -1799.4,5128.7 -1830.1,5405.5 -30.6,276.8 -2857.3,387.6 -2738.9,-150.6 118.3,-538.2 -50.5,-4273.4 -1258.4,-4946.9 -1207.9,-673.6 -4783.9,-805.1 -5910.15,892.4 -1126.2,1697.5 -1306.46,4414.8 -1306.46,4414.8 -813.64,-149.2 -843.93,425.7 -843.93,425.7 394.26,524.3 935.58,371 935.58,371 0,0 -75.35,1380.9 755.39,1849.5 0,0 1392.17,549.9 3240.77,428.3 z"
         style="fill:none;stroke:#333333;stroke-width:40;stroke-linecap:butt;stroke-linejoin:miter;stroke-miterlimit:10;stroke-dasharray:none;stroke-opacity:1"
         id="path66" />
      <path
         d="m 10867.3,24976.6 c 658.7,4.7 2752.8,-70.2 3446.7,-278.6 693.9,-208.4 1972.7,-1961 1632.7,-4854.2 -340,-2893.2 -1156.2,-3204.6 -3763.4,-3079.7 -2607.18,125 -2906.08,1454 -2906.08,1454 -543.15,587.6 -1293.18,3599 -1109.88,5192.3 0,0 -150.72,1546 2699.96,1566.2"
         style="fill:#302e2d;fill-opacity:1;fill-rule:nonzero;stroke:none"
         id="path68" />
      <path
         d="m 10867.3,24976.6 c 658.7,4.7 2752.8,-70.2 3446.7,-278.6 693.9,-208.4 1972.7,-1961 1632.7,-4854.2 -340,-2893.2 -1156.2,-3204.6 -3763.4,-3079.7 -2607.18,125 -2906.08,1454 -2906.08,1454 -543.15,587.6 -1293.18,3599 -1109.88,5192.3 0,0 -150.72,1546 2699.96,1566.2 z"
         style="fill:none;stroke:#333333;stroke-width:40;stroke-linecap:butt;stroke-linejoin:miter;stroke-miterlimit:10;stroke-dasharray:none;stroke-opacity:1"
         id="path70" />
      <path
         d="m 21790.1,24657.5 c 0,0 -2115.8,143.4 -2351.5,-1440.2 -235.8,-1583.7 626.9,-6052.8 1814.4,-6378.7 0,0 1370.5,-956 4618,-249.2 0,0 1173.6,-106.4 1320.3,2767.9 146.8,2874.4 191.9,4601.4 -1315.3,4958.7 -1507.2,357.4 -2523.3,435 -4085.9,341.5"
         style="fill:#302e2d;fill-opacity:1;fill-rule:nonzero;stroke:none"
         id="path72" />
      <path
         d="m 21790.1,24657.5 c 0,0 -2115.8,143.4 -2351.5,-1440.2 -235.8,-1583.7 626.9,-6052.8 1814.4,-6378.7 0,0 1370.5,-956 4618,-249.2 0,0 1173.6,-106.4 1320.3,2767.9 146.8,2874.4 191.9,4601.4 -1315.3,4958.7 -1507.2,357.4 -2523.3,435 -4085.9,341.5 z"
         style="fill:none;stroke:#333333;stroke-width:40;stroke-linecap:butt;stroke-linejoin:miter;stroke-miterlimit:10;stroke-dasharray:none;stroke-opacity:1"
         id="path74" />
      <path
         d="m 8981.83,24226.2 c 0,0 -647.35,-251.5 -550.93,-1240.5 96.42,-989 538.82,-5140.3 2117.1,-5614.3 0,0 -1977.21,3599.8 -1566.17,6854.8"
         style="fill:#5b524f;fill-opacity:1;fill-rule:nonzero;stroke:none"
         id="path76" />
      <path
         d="m 20271.1,23893.3 c 0,0 -652.1,-238.8 -575,-1229.4 77,-990.7 438.2,-5149.9 2007,-5654.7 0,0 -1906.5,3637.8 -1432,6884.1"
         style="fill:#5b524f;fill-opacity:1;fill-rule:nonzero;stroke:none"
         id="path78" />
    </g>
  </g>
</svg>
