<svg width="16" height="16" viewBox="0 0 16 16" fill="none" xmlns="http://www.w3.org/2000/svg">
<g clip-path="url(#clip0_337_724)">
<path d="M9.73256 5.35938L7.16616 8.4375L6.26773 7.36035C6.18373 7.25955 6.0807 7.17628 5.96452 7.1153C5.84834 7.05432 5.72128 7.01682 5.59061 7.00494C5.45993 6.99306 5.3282 7.00703 5.20293 7.04606C5.07765 7.08509 4.96129 7.14842 4.86049 7.23242C4.75969 7.31642 4.67643 7.41945 4.61544 7.53563C4.55446 7.65181 4.51696 7.77886 4.50508 7.90954C4.4932 8.04021 4.50718 8.17195 4.54621 8.29722C4.58524 8.42249 4.64856 8.53885 4.73256 8.63965L6.39858 10.6397C6.49222 10.7523 6.6095 10.843 6.74212 10.9053C6.87473 10.9676 7.01942 10.9999 7.16593 11C7.31244 11.0001 7.45717 10.9679 7.58987 10.9058C7.72256 10.8437 7.83996 10.7532 7.93374 10.6406L11.2677 6.64063C11.3525 6.53991 11.4165 6.42345 11.4561 6.29792C11.4957 6.1724 11.5102 6.04029 11.4986 5.90917C11.487 5.77806 11.4497 5.65051 11.3887 5.53386C11.3278 5.41721 11.2443 5.31374 11.1433 5.2294C11.0422 5.14506 10.9255 5.0815 10.7998 5.04238C10.6742 5.00325 10.542 4.98933 10.4109 5.00141C10.2799 5.01348 10.1525 5.05132 10.0361 5.11275C9.91964 5.17418 9.8165 5.258 9.73256 5.35938Z" fill="#20B9FC"/>
<path d="M8 0C6.41775 0 4.87103 0.469192 3.55544 1.34824C2.23985 2.22729 1.21447 3.47672 0.608967 4.93853C0.00346629 6.40034 -0.15496 8.00887 0.153721 9.56072C0.462403 11.1126 1.22433 12.538 2.34315 13.6569C3.46197 14.7757 4.88743 15.5376 6.43928 15.8463C7.99113 16.155 9.59966 15.9965 11.0615 15.391C12.5233 14.7855 13.7727 13.7602 14.6518 12.4446C15.5308 11.129 16 9.58225 16 8C15.9977 5.87896 15.1542 3.84544 13.6544 2.34564C12.1546 0.845839 10.121 0.00225883 8 0ZM8 14C6.81332 14 5.65328 13.6481 4.66658 12.9888C3.67989 12.3295 2.91085 11.3925 2.45673 10.2961C2.0026 9.19974 1.88378 7.99334 2.11529 6.82946C2.3468 5.66557 2.91825 4.59647 3.75736 3.75736C4.59648 2.91824 5.66558 2.3468 6.82946 2.11529C7.99335 1.88378 9.19975 2.0026 10.2961 2.45672C11.3925 2.91085 12.3295 3.67988 12.9888 4.66658C13.6481 5.65327 14 6.81331 14 8C13.9983 9.59077 13.3656 11.1159 12.2407 12.2407C11.1159 13.3656 9.59077 13.9983 8 14Z" fill="#20B9FC"/>
</g>
<defs>
<clipPath id="clip0_337_724">
<rect width="16" height="16" fill="white"/>
</clipPath>
</defs>
</svg>
