<svg width="16" height="16" viewBox="0 0 16 16" fill="none" xmlns="http://www.w3.org/2000/svg">
<circle cx="7.99967" cy="7.99992" r="6.66667" fill="#FAFAFA"/>
<path fill-rule="evenodd" clip-rule="evenodd" d="M7.99967 14.6666C4.31777 14.6666 1.33301 11.6818 1.33301 7.99992C1.33301 4.31802 4.31777 1.33325 7.99967 1.33325C11.6815 1.33325 14.6663 4.31802 14.6663 7.99992C14.6663 11.6818 11.6815 14.6666 7.99967 14.6666ZM8.19014 5.83325C6.85527 5.83325 5.83301 6.83525 5.83301 7.99992C5.83301 9.16458 6.85527 10.1666 8.19014 10.1666C8.53127 10.1666 8.85367 10.1002 9.14421 9.98172C9.39987 9.87745 9.69174 10.0002 9.79601 10.2559C9.90027 10.5116 9.77747 10.8034 9.52181 10.9077C9.11234 11.0747 8.66174 11.1666 8.19014 11.1666C6.3691 11.1666 4.83301 9.78072 4.83301 7.99992C4.83301 6.21908 6.3691 4.83325 8.19014 4.83325C8.66174 4.83325 9.11234 4.92519 9.52181 5.09216C9.77747 5.19643 9.90027 5.48825 9.79601 5.74395C9.69174 5.99964 9.39987 6.1224 9.14421 6.01813C8.85367 5.89966 8.53127 5.83325 8.19014 5.83325Z" fill="#151C1E"/>
</svg>
