<svg width="16" height="16" viewBox="0 0 16 16" fill="none" xmlns="http://www.w3.org/2000/svg">
<g clip-path="url(#clip0_346_3338)">
<path d="M2.37152 0L0 2.37152L0.890344 3.26023L2.07529 2.07529L2.66776 2.66776L1.48282 3.8527L2.66776 5.03764L3.8527 3.8527L4.44517 4.44517L3.26023 5.63011L4.44517 6.81506L6.81506 4.44517L2.37152 0ZM13.2651 0.364975L11.0311 2.59902L13.401 4.9689L15.635 2.73486C15.314 2.28348 14.9613 1.84838 14.5565 1.44354C14.1516 1.0387 13.7165 0.686027 13.2651 0.364975ZM9.84615 3.78396L0.957447 12.6727L0.364975 15.635L3.32733 15.0426L12.216 6.15385L9.84615 3.78396ZM11.5548 9.18494L9.18494 11.5548L10.3699 12.7398L11.5548 11.5548L12.1473 12.1473L10.9624 13.3322L12.1473 14.5172L13.3322 13.3322L13.9247 13.9247L12.7398 15.1097L13.6285 16L16 13.6285L11.5548 9.18494Z" fill="#F4F5FE"/>
</g>
<defs>
<clipPath id="clip0_346_3338">
<rect width="16" height="16" fill="white"/>
</clipPath>
</defs>
</svg>
