<svg width="24" height="24" viewBox="0 0 24 24" fill="none" xmlns="http://www.w3.org/2000/svg">
<g clip-path="url(#clip0_332_655)">
<path d="M6.0752 18.7125L0.262695 14.1375L3.1502 8.77499L11.4377 12L6.0752 18.7125Z" fill="url(#paint0_linear_332_655)"/>
<path d="M24.0004 6.4125L23.5504 20.2875L14.3254 24L8.77539 20.4L16.8754 12L13.3504 4.2L16.5379 0.375L24.0004 6.4125Z" fill="url(#paint1_linear_332_655)"/>
<path d="M23.9996 6.4125L16.6871 15.0375L13.3496 4.2L16.5371 0.375L23.9996 6.4125Z" fill="url(#paint2_linear_332_655)"/>
<path d="M11.55 19.9125L1.95 23.4L3.4875 18L5.475 11.325L0 9.4875L3.4875 0L10.9875 0.9L18.4125 9.375L11.55 19.9125Z" fill="url(#paint3_linear_332_655)"/>
<path d="M19.5 4.5H4.5V19.5H19.5V4.5Z" fill="black"/>
<path d="M5.9248 16.6875H11.5498V17.625H5.9248V16.6875ZM9.9373 7.575V6.45H6.8623V7.575H7.7248V11.5125H6.8623V12.675H9.9373V11.5125H9.0748V7.575H9.9373ZM12.9373 12.75C12.5092 12.7693 12.0832 12.679 11.6998 12.4875C11.3861 12.3144 11.1066 12.0857 10.8748 11.8125L11.7373 10.8375C11.893 11.0086 12.0694 11.1598 12.2623 11.2875C12.4438 11.3939 12.6521 11.446 12.8623 11.4375C13.0935 11.4552 13.3184 11.3568 13.4623 11.175C13.636 10.9513 13.7166 10.6692 13.6873 10.3875V6.375H15.0748V10.425C15.089 10.7567 15.0381 11.0879 14.9248 11.4C14.8259 11.7166 14.6447 12.0013 14.3998 12.225C13.9748 12.5405 13.4659 12.7232 12.9373 12.75Z" fill="white"/>
</g>
<defs>
<linearGradient id="paint0_linear_332_655" x1="0.262695" y1="505.65" x2="1115.51" y2="505.65" gradientUnits="userSpaceOnUse">
<stop offset="0.26" stop-color="#F97A12"/>
<stop offset="0.46" stop-color="#B07B58"/>
<stop offset="0.72" stop-color="#577BAE"/>
<stop offset="0.91" stop-color="#1E7CE5"/>
<stop offset="1" stop-color="#087CFA"/>
</linearGradient>
<linearGradient id="paint1_linear_332_655" x1="14.0254" y1="816.375" x2="1983.64" y2="1268.89" gradientUnits="userSpaceOnUse">
<stop stop-color="#F97A12"/>
<stop offset="0.07" stop-color="#CB7A3E"/>
<stop offset="0.15" stop-color="#9E7B6A"/>
<stop offset="0.24" stop-color="#757B91"/>
<stop offset="0.33" stop-color="#537BB1"/>
<stop offset="0.43" stop-color="#387CCC"/>
<stop offset="0.54" stop-color="#237CE0"/>
<stop offset="0.66" stop-color="#147CEF"/>
<stop offset="0.79" stop-color="#0B7CF7"/>
<stop offset="1" stop-color="#087CFA"/>
</linearGradient>
<linearGradient id="paint2_linear_332_655" x1="845.85" y1="1433.63" x2="7.02269" y2="110.535" gradientUnits="userSpaceOnUse">
<stop stop-color="#FE315D"/>
<stop offset="0.08" stop-color="#CB417E"/>
<stop offset="0.16" stop-color="#9E4E9B"/>
<stop offset="0.25" stop-color="#755BB4"/>
<stop offset="0.34" stop-color="#5365CA"/>
<stop offset="0.44" stop-color="#386DDB"/>
<stop offset="0.54" stop-color="#2374E9"/>
<stop offset="0.66" stop-color="#1478F3"/>
<stop offset="0.79" stop-color="#0B7BF8"/>
<stop offset="1" stop-color="#087CFA"/>
</linearGradient>
<linearGradient id="paint3_linear_332_655" x1="368.25" y1="563.625" x2="2387.98" y2="2632.34" gradientUnits="userSpaceOnUse">
<stop stop-color="#FE315D"/>
<stop offset="0.04" stop-color="#F63462"/>
<stop offset="0.1" stop-color="#DF3A71"/>
<stop offset="0.17" stop-color="#C24383"/>
<stop offset="0.29" stop-color="#AD4A91"/>
<stop offset="0.55" stop-color="#755BB4"/>
<stop offset="0.92" stop-color="#1D76ED"/>
<stop offset="1" stop-color="#087CFA"/>
</linearGradient>
<clipPath id="clip0_332_655">
<rect width="24" height="24" fill="white"/>
</clipPath>
</defs>
</svg>
