<svg width="24" height="24" viewBox="0 0 24 24" fill="none" xmlns="http://www.w3.org/2000/svg">
<g clip-path="url(#clip0_342_3260)">
<path d="M4 0C1.79086 0 0 1.79086 0 4V20C0 22.2091 1.79086 24 4 24H20C22.2091 24 24 22.2091 24 20V4C24 1.79086 22.2091 0 20 0H4ZM22.5938 18.5938C22.5938 20.8029 20.8029 22.5938 18.5938 22.5938H5.40625C3.19711 22.5938 1.40625 20.8029 1.40625 18.5938V5.40625C1.40625 3.19711 3.19711 1.40625 5.40625 1.40625H18.5938C20.8029 1.40625 22.5938 3.19711 22.5938 5.40625V18.5938Z" fill="#F4F5FE"/>
<path d="M8.64375 15.8508V10.704C8.64375 10.058 8.12013 9.53442 7.47422 9.53442C6.8283 9.53442 6.30469 10.058 6.30469 10.704V15.8508C6.30469 16.4967 6.8283 17.0204 7.47422 17.0204C8.12013 17.0204 8.64375 16.4967 8.64375 15.8508Z" fill="#F4F5FE"/>
<path d="M11.3863 17.0204C12.1108 17.0204 12.698 16.4331 12.698 15.7087V12.975C12.698 12.7454 12.6887 12.5204 12.7543 12.361C12.9324 11.911 13.3215 11.4422 14.0199 11.4422C14.934 11.4422 15.3465 12.136 15.3465 13.1485V15.6938C15.3465 16.4264 15.9404 17.0204 16.673 17.0204V17.0204C17.4057 17.0204 17.9996 16.4264 17.9996 15.6938V12.8579C17.9996 10.5422 16.6965 9.46411 15.0324 9.46411C14.3205 9.46411 13.75 9.67032 13.3484 9.94095C13.2045 10.0379 12.698 9.85847 12.698 9.68501V9.68501C12.698 9.60184 12.6306 9.53442 12.5475 9.53442H11.4178C10.6843 9.53442 10.0802 10.1482 10.082 10.8817C10.0854 12.2594 10.079 14.3522 10.0739 15.7031C10.0711 16.4299 10.6595 17.0204 11.3863 17.0204V17.0204Z" fill="#F4F5FE"/>
<path d="M7.39199 8.59687H7.41074C8.29199 8.59687 8.84043 8.02031 8.83574 7.29844C8.81699 6.55781 8.2873 6 7.4248 6C6.5623 6 5.99512 6.55781 5.99512 7.29844C5.99512 8.025 6.54355 8.59687 7.39199 8.59687Z" fill="#F4F5FE"/>
</g>
<defs>
<clipPath id="clip0_342_3260">
<rect width="24" height="24" fill="white"/>
</clipPath>
</defs>
</svg>
