<svg width="24" height="24" viewBox="0 0 24 24" fill="none" xmlns="http://www.w3.org/2000/svg">
<g clip-path="url(#clip0_343_3296)">
<rect width="24" height="24" rx="2" fill="#FAFAFA"/>
<path d="M20.45 20.45H16.894V14.88C16.894 13.552 16.87 11.842 15.044 11.842C13.192 11.842 12.908 13.29 12.908 14.782V20.45H9.352V8.99603H12.766V10.562H12.814C13.51 9.37403 14.806 8.66203 16.182 8.71203C19.786 8.71203 20.452 11.082 20.452 14.168L20.45 20.448V20.45ZM5.34 7.43003C4.79375 7.42741 4.27059 7.20938 3.88414 6.8233C3.49769 6.43723 3.27915 5.91428 3.276 5.36803C3.276 4.23603 4.208 3.30403 5.34 3.30403C6.472 3.30403 7.402 4.23603 7.404 5.36803C7.404 6.50003 6.472 7.43003 5.34 7.43003ZM7.118 20.45H3.558V8.99603H7.118V20.45ZM22.22 2.97265e-05H1.77C1.3063 -0.00266353 0.860275 0.177749 0.528846 0.502062C0.197418 0.826375 0.00736933 1.26838 0 1.73203V22.268C0.00736933 22.7317 0.197418 23.1737 0.528846 23.498C0.860275 23.8223 1.3063 24.0027 1.77 24H22.222C22.6868 24.0038 23.1342 23.824 23.4672 23.4997C23.8001 23.1753 23.9916 22.7327 24 22.268V1.73003C23.9916 1.26568 23.8 0.823487 23.4669 0.499807C23.1339 0.176127 22.6864 -0.00279651 22.222 0.00202958L22.22 2.97265e-05Z" fill="#0A66C2"/>
</g>
<defs>
<clipPath id="clip0_343_3296">
<rect width="24" height="24" fill="white"/>
</clipPath>
</defs>
</svg>
