<svg width="16" height="16" viewBox="0 0 16 16" fill="none" xmlns="http://www.w3.org/2000/svg">
<g clip-path="url(#clip0_346_3341)">
<path d="M11.8258 6.2608H7.47803V8.34775H11.8258V6.2608Z" fill="#F4F5FE"/>
<path d="M11.8258 3.13043H7.47803V5.21737H11.8258V3.13043Z" fill="#F4F5FE"/>
<path d="M6.43468 3.13043H4.17383V8.34776H6.43468V3.13043Z" fill="#F4F5FE"/>
<path d="M11.2954 14.9832L8.52158 14.0586V12.5216H7.47805V14.0586L4.70439 14.9832C4.43095 15.0742 4.28351 15.3697 4.37457 15.643C4.46586 15.9176 4.76295 16.0641 5.03458 15.973L7.99989 14.9845L10.9652 15.973C11.237 16.0641 11.534 15.9174 11.6252 15.643C11.7162 15.3698 11.5688 15.0742 11.2954 14.9832Z" fill="#F4F5FE"/>
<path d="M15.4781 10.4347H14.9564V1.04347H15.4781C15.7661 1.04347 15.9998 0.809939 15.9998 0.521751C15.9998 0.233532 15.7661 0 15.4781 0C8.76989 0 7.37011 0 0.52172 0C0.233688 0 0 0.233532 0 0.52172C0 0.809939 0.233688 1.04344 0.52172 1.04344H1.04344V10.4346H0.52172C0.233688 10.4346 0 10.6682 0 10.9564C0 11.2446 0.233688 11.4781 0.52172 11.4781C2.2811 11.4781 13.8553 11.4781 15.4781 11.4781C15.7661 11.4781 15.9998 11.2446 15.9998 10.9564C15.9998 10.6682 15.7661 10.4347 15.4781 10.4347ZM12.8694 8.86946C12.8694 9.15767 12.6357 9.39118 12.3477 9.39118H3.65213C3.3641 9.39118 3.13041 9.15764 3.13041 8.86946V2.60866C3.13041 2.32044 3.3641 2.08694 3.65213 2.08694H12.3477C12.6357 2.08694 12.8694 2.32047 12.8694 2.60866V8.86946H12.8694Z" fill="#F4F5FE"/>
</g>
<defs>
<clipPath id="clip0_346_3341">
<rect width="16" height="16" fill="white"/>
</clipPath>
</defs>
</svg>
