<svg width="24" height="24" viewBox="0 0 24 24" fill="none" xmlns="http://www.w3.org/2000/svg">
<path d="M21.7574 3.77251L17.4329 1.69051C17.1887 1.57275 16.9139 1.5339 16.6466 1.57932C16.3793 1.62474 16.1328 1.75219 15.9412 1.94401L1.7849 14.85C1.61314 15.0059 1.51033 15.2236 1.49908 15.4552C1.48783 15.6869 1.56906 15.9135 1.7249 16.0853C1.74365 16.1055 1.7624 16.125 1.78265 16.143L2.9384 17.193C3.08942 17.3305 3.28382 17.4107 3.48782 17.4197C3.69183 17.4288 3.89256 17.3661 4.05515 17.2425L21.1064 4.31251C21.2352 4.21478 21.3887 4.15493 21.5497 4.13972C21.7106 4.1245 21.8726 4.15452 22.0175 4.22639C22.1623 4.29825 22.2842 4.40912 22.3694 4.5465C22.4546 4.68388 22.4998 4.84233 22.4999 5.00401V4.95376C22.4999 4.70693 22.4302 4.46513 22.2988 4.25615C22.1675 4.04718 21.9798 3.87954 21.7574 3.77251Z" fill="#0065A9"/>
<path d="M21.7574 20.2275L17.4329 22.3103C17.1886 22.4277 16.9139 22.4663 16.6467 22.4209C16.3795 22.3755 16.1329 22.2483 15.9412 22.0568L1.7849 9.15C1.61314 8.99415 1.51033 8.77646 1.49908 8.5448C1.48783 8.31315 1.56906 8.08651 1.7249 7.91475C1.74365 7.8945 1.7624 7.875 1.78265 7.857L2.9384 6.807C3.08958 6.66897 3.28442 6.58841 3.48892 6.57936C3.69343 6.57031 3.89463 6.63336 4.0574 6.7575L21.1064 19.6875C21.2352 19.7852 21.3887 19.8451 21.5497 19.8603C21.7106 19.8755 21.8726 19.8455 22.0175 19.7736C22.1623 19.7018 22.2842 19.5909 22.3694 19.4535C22.4546 19.3161 22.4998 19.1577 22.4999 18.996V19.05C22.4991 19.2962 22.429 19.5371 22.2977 19.7454C22.1664 19.9536 21.9792 20.1207 21.7574 20.2275Z" fill="#007ACC"/>
<path d="M17.4332 22.3102C17.1889 22.4277 16.9142 22.4663 16.647 22.4209C16.3798 22.3755 16.1333 22.2483 15.9415 22.0568C16.0492 22.163 16.1859 22.2352 16.3344 22.2641C16.4829 22.2931 16.6367 22.2776 16.7764 22.2195C16.9162 22.1615 17.0357 22.0634 17.12 21.9378C17.2042 21.8121 17.2496 21.6643 17.2502 21.513V2.487C17.2504 2.33497 17.2054 2.18632 17.1209 2.05988C17.0365 1.93344 16.9164 1.83491 16.776 1.77676C16.6355 1.71861 16.4809 1.70346 16.3318 1.73324C16.1827 1.76301 16.0458 1.83636 15.9385 1.944C16.1301 1.75226 16.3766 1.6248 16.6439 1.57925C16.9111 1.5337 17.1859 1.57231 17.4302 1.68975L21.754 3.76875C21.9771 3.87525 22.1655 4.04267 22.2976 4.25168C22.4296 4.46069 22.4999 4.70277 22.5002 4.95V19.05C22.5003 19.297 22.4305 19.5391 22.2991 19.7482C22.1676 19.9573 21.9796 20.125 21.757 20.232L17.4332 22.3102Z" fill="#1F9CF0"/>
</svg>
